# xmcd
#
# Track frame offsets: 
#        150
#        7304
#        39337
#        45782
#        82981
#        90792
#        139631
#        152686
#        180828
#        192379
#        242481
#        272160
#
# Disc length: 4034 seconds
#
# Revision: 3
# Processed by: cddbd v1.5.2PL0 Copyright (c) Steve Scherf et al.
# Submitted via: ExactAudioCopy v1.3
#
DISCID=820fc00c
DTITLE=Laboratorium - Quasimodo
DYEAR=1979
DGENRE=Jazz
TTITLE0=Przejazd
TTITLE1=I'm sorry, I'm not driver
TTITLE2=Etiudka
TTITLE3=Sniegowa panienka
TTITLE4=Lady Rolland
TTITLE5=Quasimodo
TTITLE6=Kyokushinkai
TTITLE7=Ikona
TTITLE8=Etiudka (bonus track)
TTITLE9=Sniegowa panienka (bonus track)
TTITLE10=Odjazd (bonus track)
TTITLE11=Zdrowie na budowie (bonus track)
EXTD=YEAR: 1979
EXTT0=
EXTT1=
EXTT2=
EXTT3=
EXTT4=
EXTT5=
EXTT6=
EXTT7=
EXTT8=
EXTT9=
EXTT10=
EXTT11=
PLAYORDER=
